<?xml version="1.0" encoding="UTF-8"?>
<svg width="58px" height="58px" viewBox="0 0 58 58" version="1.1" xmlns="http://www.w3.org/2000/svg" xmlns:xlink="http://www.w3.org/1999/xlink">
    <title>icon/图谱/拓扑/资产/默认</title>
    <g id="icon/图谱/拓扑/资产/默认" stroke="none" stroke-width="1" fill="none" fill-rule="evenodd">
        <g id="编组" transform="translate(5.000000, 5.000000)">
            <circle id="椭圆形" fill="#DFB94D" cx="24" cy="24" r="24"></circle>
            <g transform="translate(12.000000, 12.000000)" id="icon/fill/24/抽屉-2">
                <rect id="Rectangle-39" x="0" y="0" width="24" height="24"></rect>
                <path d="M22.0004333,11.251 L22.0011391,20.3949314 C21.9984692,21.2793031 21.2695842,22 20.3751648,22 L20.3751648,22 L3.6294978,22 C2.73507841,22 2.00619335,21.2793031 2.00619335,20.3949314 L2.00619335,20.3949314 L2.00543331,11.251 L8.71171875,11.2523438 L8.79741178,11.4397699 C9.39732674,12.6640572 10.5648438,13.3804688 12.0023438,13.3804688 C12.7921875,13.3804688 13.5257813,13.1601563 14.11875,12.7429688 L14.11875,12.7429688 L14.308429,12.5991302 C14.7381958,12.247998 15.0773438,11.7896484 15.3070313,11.2523438 L15.3070313,11.2523438 L22.0004333,11.251 Z M17.9802567,2 C18.4314713,2 18.8292877,2.29303062 18.9627831,2.71805702 L18.9627831,2.71805702 L21.6414333,9.451 L13.8140625,9.45234375 L13.8070313,9.8203125 L13.7989567,9.97553467 C13.7147871,10.941668 13.0086328,11.5804688 12,11.5804688 C11.4820313,11.5804688 11.0367188,11.4140625 10.715625,11.0976563 C10.3945313,10.78125 10.21875,10.340625 10.209375,9.8203125 L10.209375,9.8203125 L10.2023438,9.45234375 L2.32443331,9.451 L4.85231596,2.72861668 C4.96882106,2.3374292 5.31259938,2.05532914 5.7151518,2.00727117 L5.83751225,2 Z" id="Shape备份" fill="#FFFFFF"></path>
            </g>
        </g>
    </g>
</svg>