<?xml version="1.0" encoding="UTF-8"?>
<svg width="58px" height="58px" viewBox="0 0 58 58" version="1.1" xmlns="http://www.w3.org/2000/svg" xmlns:xlink="http://www.w3.org/1999/xlink">
    <title>icon/图谱/拓扑/资产/lock</title>
    <defs>
        <rect id="path-1" x="0" y="0" width="16" height="16" rx="8"></rect>
        <filter x="-21.9%" y="-15.6%" width="143.8%" height="143.8%" filterUnits="objectBoundingBox" id="filter-2">
            <feOffset dx="0" dy="1" in="SourceAlpha" result="shadowOffsetOuter1"></feOffset>
            <feGaussianBlur stdDeviation="1" in="shadowOffsetOuter1" result="shadowBlurOuter1"></feGaussianBlur>
            <feColorMatrix values="0 0 0 0 0.457836206   0 0 0 0 0   0 0 0 0 0  0 0 0 0.266731316 0" type="matrix" in="shadowBlurOuter1"></feColorMatrix>
        </filter>
    </defs>
    <g id="icon/图谱/拓扑/资产/lock" stroke="none" stroke-width="1" fill="none" fill-rule="evenodd">
        <g id="编组" transform="translate(5.000000, 5.000000)" fill="#DFB94D" fill-opacity="0.8" stroke="#DFB94D">
            <circle id="椭圆形备份" cx="24" cy="24" r="23.5"></circle>
        </g>
        <g id="icon_锁定" transform="translate(38.000000, 40.000000)">
            <g id="矩形" fill-rule="nonzero">
                <use fill="black" fill-opacity="1" filter="url(#filter-2)" xlink:href="#path-1"></use>
                <use fill="#FFFFFF" xlink:href="#path-1"></use>
            </g>
            <rect id="矩形备份" fill="#FF2626" x="0" y="0" width="16" height="16" rx="8"></rect>
            <path d="M11.3709824,5.65592597 C11.1842135,5.2206489 10.9197142,4.83124413 10.5861211,4.49994425 C10.2525281,4.16558623 9.86171682,3.90156571 9.42448322,3.71603778 C8.97213537,3.52541293 8.49387738,3.42857143 8.00158474,3.42857143 C7.50929209,3.42857143 7.02995451,3.52541293 6.57760666,3.71705717 C6.14037306,3.90156571 5.75064138,4.16558623 5.41596875,4.49994425 C5.07913694,4.83532166 4.8146376,5.22472644 4.63110744,5.65592597 C4.44002017,6.10241626 4.34285714,6.57744931 4.34285714,7.06879251 L4.34285714,11.8619371 C4.34285714,12.2533807 4.66349512,12.5714286 5.05862474,12.5714286 L10.941306,12.5714286 C11.3364356,12.5714286 11.6571088,12.2533807 11.6549144,11.8619371 L11.6549144,7.6314926 L11.6571088,7.43679021 L11.6571088,7.06879251 C11.6592327,6.57948808 11.5620697,6.10445503 11.3709824,5.65592597 Z M6.86477737,4.35824984 L6.86693655,4.35824984 L6.88097121,4.35315292 C7.23399686,4.20126467 7.61077347,4.12481086 8.00050515,4.12481086 C8.38807765,4.12481086 8.76593385,4.20228406 9.12111867,4.35111416 C9.46550761,4.49790548 9.77858846,4.70891802 10.0495653,4.97701607 C10.3227014,5.24919166 10.5353804,5.56418139 10.6854433,5.91484956 C10.8419838,6.27978911 10.9207938,6.66715512 10.9207938,7.06879251 L10.9207938,7.37053024 L5.08021653,7.37053024 L5.08021653,7.37053024 L5.08021653,7.06777312 C5.08021653,6.67021327 5.15902653,6.28284727 5.31556696,5.91484956 C5.46670944,5.56112323 5.68154768,5.24613351 5.95144496,4.97803546 C6.22026266,4.71095679 6.52578638,4.50198302 6.86477737,4.35824984 Z M7.66043457,9.63050507 L7.66043457,10.542854 C7.66043457,10.7212462 7.81373623,10.8659988 8.00266433,10.8659988 C8.19159242,10.8659988 8.34489408,10.7212462 8.34489408,10.542854 L8.34489408,9.6284663 C8.52626506,9.51837281 8.63530356,9.33284488 8.63530356,9.12692926 C8.63530356,8.79664877 8.35137162,8.52855072 8.00158474,8.52855072 C7.65179786,8.52855072 7.36786591,8.79664877 7.36786591,9.12692926 C7.3689455,9.32978673 7.48014318,9.52143096 7.66043457,9.63050507 Z" id="Shape" fill="#FFFFFF"></path>
        </g>
        <g id="icon/fill/24/抽屉-2" transform="translate(17.000000, 17.000000)">
            <rect id="Rectangle-39" x="0" y="0" width="24" height="24"></rect>
            <path d="M22.0004333,11.251 L22.0011391,20.3949314 C21.9984692,21.2793031 21.2695842,22 20.3751648,22 L20.3751648,22 L3.6294978,22 C2.73507841,22 2.00619335,21.2793031 2.00619335,20.3949314 L2.00619335,20.3949314 L2.00543331,11.251 L8.71171875,11.2523438 L8.79741178,11.4397699 C9.39732674,12.6640572 10.5648438,13.3804688 12.0023438,13.3804688 C12.7921875,13.3804688 13.5257813,13.1601563 14.11875,12.7429688 L14.11875,12.7429688 L14.308429,12.5991302 C14.7381958,12.247998 15.0773438,11.7896484 15.3070313,11.2523438 L15.3070313,11.2523438 L22.0004333,11.251 Z M17.9802567,2 C18.4314713,2 18.8292877,2.29303062 18.9627831,2.71805702 L18.9627831,2.71805702 L21.6414333,9.451 L13.8140625,9.45234375 L13.8070313,9.8203125 L13.7989567,9.97553467 C13.7147871,10.941668 13.0086328,11.5804688 12,11.5804688 C11.4820313,11.5804688 11.0367188,11.4140625 10.715625,11.0976563 C10.3945313,10.78125 10.21875,10.340625 10.209375,9.8203125 L10.209375,9.8203125 L10.2023438,9.45234375 L2.32443331,9.451 L4.85231596,2.72861668 C4.96882106,2.3374292 5.31259938,2.05532914 5.7151518,2.00727117 L5.83751225,2 Z" id="Shape备份" fill="#FFFFFF"></path>
        </g>
    </g>
</svg>