<?xml version="1.0" encoding="UTF-8"?>
<svg width="58px" height="58px" viewBox="0 0 58 58" version="1.1" xmlns="http://www.w3.org/2000/svg" xmlns:xlink="http://www.w3.org/1999/xlink">
    <title>icon/图谱/拓扑/课题/默认</title>
    <g id="icon/图谱/拓扑/课题/默认" stroke="none" stroke-width="1" fill="none" fill-rule="evenodd">
        <g id="编组" transform="translate(5.000000, 5.000000)">
            <circle id="椭圆形" fill="#FF67C2" cx="24" cy="24" r="24"></circle>
            <g id="file-mark-fill" transform="translate(12.000000, 12.000000)">
                <polygon id="路径" points="0 0 24 0 24 24 0 24"></polygon>
                <path d="M21,2.992 L21,21.008 C20.9956416,21.5544403 20.5534445,21.9961922 20.007,22 L3.993,22 C3.44497153,22 3.00055189,21.5560282 3,21.008 L3,2.992 C3.00435839,2.44555966 3.44655554,2.00380782 3.993,2 L20.007,2 C20.555,2 21,2.444 21,2.992 L21,2.992 Z M7,4 L7,13 L10.5,11 L14,13 L14,4 L7,4 Z" id="形状" fill="#FFFFFF" fill-rule="nonzero"></path>
            </g>
        </g>
    </g>
</svg>