<?xml version="1.0" encoding="UTF-8"?>
<svg width="58px" height="58px" viewBox="0 0 58 58" version="1.1" xmlns="http://www.w3.org/2000/svg" xmlns:xlink="http://www.w3.org/1999/xlink">
    <title>icon/图谱/拓扑/技术/默认</title>
    <g id="icon/图谱/拓扑/技术/默认" stroke="none" stroke-width="1" fill="none" fill-rule="evenodd">
        <g id="编组" transform="translate(5.000000, 5.000000)">
            <circle id="椭圆形" fill="#11BC83" cx="24" cy="24" r="24"></circle>
            <g id="code-box-fill" transform="translate(12.000000, 12.000000)">
                <polygon id="路径" points="0 0 24 0 24 24 0 24"></polygon>
                <path d="M3,3 L21,3 C21.5522847,3 22,3.44771525 22,4 L22,20 C22,20.5522847 21.5522847,21 21,21 L3,21 C2.44771525,21 2,20.5522847 2,20 L2,4 C2,3.44771525 2.44771525,3 3,3 Z M16.464,15.536 L20,12 L16.464,8.464 L15.05,9.88 L17.172,12 L15.05,14.121 L16.464,15.536 L16.464,15.536 Z M6.828,12 L8.95,9.879 L7.536,8.464 L4,12 L7.536,15.536 L8.95,14.12 L6.828,12 Z M11.244,17 L14.884,7 L12.756,7 L9.116,17 L11.244,17 Z" id="形状" fill="#FFFFFF" fill-rule="nonzero"></path>
            </g>
        </g>
    </g>
</svg>