<?xml version="1.0" encoding="UTF-8"?>
<svg width="58px" height="58px" viewBox="0 0 58 58" version="1.1" xmlns="http://www.w3.org/2000/svg" xmlns:xlink="http://www.w3.org/1999/xlink">
    <title>icon/图谱/拓扑/型号/默认</title>
    <g id="icon/图谱/拓扑/型号/默认" stroke="none" stroke-width="1" fill="none" fill-rule="evenodd">
        <g id="编组" transform="translate(5.000000, 5.000000)" fill="#003DDF">
            <circle id="椭圆形" cx="24" cy="24" r="24"></circle>
        </g>
        <g id="编组" transform="translate(17.000000, 17.000000)">
            <rect id="矩形" x="0" y="0" width="24" height="24"></rect>
            <path d="M2,7.323 L11.079,12.65 L11.079,23.001 L2.47500164,18.1247411 C2.21781111,17.9790014 2.04703088,17.725113 2.00835442,17.440754 L2,17.3172468 L2,7.323 Z M22,7.376 L22,17.3172468 C22,17.6503663 21.8189304,17.9581814 21.5249984,18.1247411 L21.5249984,18.1247411 L12.979,22.967 L12.979,12.76 L22,7.376 Z M11.5249984,1.1249198 C11.8189304,0.958360066 12.1810696,0.958360066 12.4750016,1.1249198 L12.4750016,1.1249198 L20.64,5.752 L12.1218363,10.8361247 L3.408,5.724 Z" id="多边形" fill="#FFFFFF"></path>
        </g>
    </g>
</svg>