<?xml version="1.0" encoding="UTF-8"?>
<svg width="58px" height="58px" viewBox="0 0 58 58" version="1.1" xmlns="http://www.w3.org/2000/svg" xmlns:xlink="http://www.w3.org/1999/xlink">
    <title>icon/图谱/拓扑/漏洞/默认</title>
    <g id="icon/图谱/拓扑/漏洞/默认" stroke="none" stroke-width="1" fill="none" fill-rule="evenodd">
        <g id="编组" transform="translate(5.000000, 5.000000)">
            <circle id="椭圆形" fill="#E5433E" cx="24" cy="24" r="24"></circle>
            <rect id="矩形" x="12" y="12" width="24" height="24"></rect>
            <path d="M33.5555781,19.1111182 L30.121132,19.1111182 C29.5711326,18.1577944 28.8133585,17.3327826 27.902797,16.715571 L29.8889072,14.7294608 L28.1594718,13 L25.5011119,15.6583345 C24.9511126,15.5238846 24.3705506,15.4444473 23.777789,15.4444473 C23.1850021,15.4444473 22.6044655,15.5238846 22.0544662,15.6583345 L19.3961063,13 L17.6666709,14.7294354 L19.6527811,16.7155456 C18.7422196,17.3327573 17.9844455,18.157769 17.4344461,19.1110928 L14,19.1110928 L14,21.5555401 L16.5544471,21.5555401 C16.4872349,21.952752 16.4444473,22.3622143 16.4444473,22.7777637 L16.4444473,23.9999873 L14,23.9999873 L14,26.4444346 L16.4444473,26.4444346 L16.4444473,27.6666582 C16.4444473,28.0822076 16.4872349,28.4916699 16.5544471,28.8888818 L14,28.8888818 L14,31.3333291 L17.4344461,31.3333291 C18.6994574,33.5211015 21.0644419,35 23.7777891,35 C26.4911362,35 28.8561208,33.5211269 30.121132,31.3333545 L33.5555781,31.3333545 L33.5555781,28.8889072 L31.0011309,28.8889072 C31.0683432,28.4916953 31.1111308,28.082233 31.1111308,27.6666836 L31.1111308,26.44446 L33.5555781,26.44446 L33.5555781,24.0000127 L31.1111308,24.0000127 L31.1111308,22.7777891 C31.1111308,22.3622396 31.0683432,21.9527774 31.0011309,21.5555655 L33.5555781,21.5555655 L33.5555781,19.1111182 Z M26.2222363,28.8889072 L21.3333418,28.8889072 L21.3333418,26.44446 L26.2222363,26.44446 L26.2222363,28.8889072 Z M26.2222363,24.0000127 L21.3333418,24.0000127 L21.3333418,21.5555654 L26.2222363,21.5555654 L26.2222363,24.0000127 Z" id="形状" fill="#FFFFFF" fill-rule="nonzero"></path>
        </g>
    </g>
</svg>