<?xml version="1.0" encoding="UTF-8"?>
<svg width="58px" height="58px" viewBox="0 0 58 58" version="1.1" xmlns="http://www.w3.org/2000/svg" xmlns:xlink="http://www.w3.org/1999/xlink">
    <title>icon/图谱/拓扑/标准/默认</title>
    <g id="icon/图谱/拓扑/标准/默认" stroke="none" stroke-width="1" fill="none" fill-rule="evenodd">
        <g id="编组" transform="translate(5.000000, 5.000000)">
            <circle id="椭圆形" fill="#2DAEFE" cx="24" cy="24" r="24"></circle>
            <g id="pencil-ruler-2-fill" transform="translate(12.000000, 12.000000)">
                <polygon id="路径" points="0 0 24 0 24 24 0 24"></polygon>
                <path d="M5.636,12.707 L7.464,14.536 L8.88,13.12 L7.05,11.293 L8.464,9.879 L10.293,11.707 L11.707,10.293 L9.88,8.464 L11.294,7.05 L13.12,8.88 L14.535,7.465 L12.706,5.637 L15.535,2.809 C15.9254999,2.41861806 16.5585001,2.41861806 16.949,2.809 L21.191,7.051 C21.5813819,7.44149985 21.5813819,8.07450015 21.191,8.465 L8.464,21.192 C8.07350015,21.5823819 7.44049985,21.5823819 7.05,21.192 L2.808,16.95 C2.41761806,16.5595001 2.41761806,15.9264999 2.808,15.536 L5.636,12.707 Z M14.121,18.363 L18.364,14.121 L21,16.757 L21,21 L16.758,21 L14.121,18.363 Z M5.636,9.878 L2.807,7.05 C2.61922296,6.86243174 2.51371334,6.60790925 2.51371334,6.3425 C2.51371334,6.07709075 2.61922296,5.82256826 2.807,5.635 L5.636,2.807 C6.02649985,2.41661806 6.65950015,2.41661806 7.05,2.807 L9.88,5.635 L5.636,9.878 Z" id="形状" fill="#FFFFFF" fill-rule="nonzero"></path>
            </g>
        </g>
    </g>
</svg>