<?xml version="1.0" encoding="UTF-8"?>
<svg width="58px" height="58px" viewBox="0 0 58 58" version="1.1" xmlns="http://www.w3.org/2000/svg" xmlns:xlink="http://www.w3.org/1999/xlink">
    <title>icon/图谱/拓扑/标准/标记</title>
    <defs>
        <rect id="path-1" x="0" y="0" width="16" height="16" rx="8"></rect>
        <filter x="-21.9%" y="-15.6%" width="143.8%" height="143.8%" filterUnits="objectBoundingBox" id="filter-2">
            <feOffset dx="0" dy="1" in="SourceAlpha" result="shadowOffsetOuter1"></feOffset>
            <feGaussianBlur stdDeviation="1" in="shadowOffsetOuter1" result="shadowBlurOuter1"></feGaussianBlur>
            <feColorMatrix values="0 0 0 0 0.50318002   0 0 0 0 0.377964716   0 0 0 0 0  0 0 0 0.24 0" type="matrix" in="shadowBlurOuter1"></feColorMatrix>
        </filter>
    </defs>
    <g id="icon/图谱/拓扑/标准/标记" stroke="none" stroke-width="1" fill="none" fill-rule="evenodd">
        <g id="编组" transform="translate(5.000000, 5.000000)">
            <circle id="椭圆形" stroke="#2DAEFE" fill-opacity="0.8" fill="#2DAEFE" cx="24" cy="24" r="23.5"></circle>
            <g id="pencil-ruler-2-fill" transform="translate(12.000000, 12.000000)">
                <polygon id="路径" points="0 0 24 0 24 24 0 24"></polygon>
                <path d="M5.636,12.707 L7.464,14.536 L8.88,13.12 L7.05,11.293 L8.464,9.879 L10.293,11.707 L11.707,10.293 L9.88,8.464 L11.294,7.05 L13.12,8.88 L14.535,7.465 L12.706,5.637 L15.535,2.809 C15.9254999,2.41861806 16.5585001,2.41861806 16.949,2.809 L21.191,7.051 C21.5813819,7.44149985 21.5813819,8.07450015 21.191,8.465 L8.464,21.192 C8.07350015,21.5823819 7.44049985,21.5823819 7.05,21.192 L2.808,16.95 C2.41761806,16.5595001 2.41761806,15.9264999 2.808,15.536 L5.636,12.707 Z M14.121,18.363 L18.364,14.121 L21,16.757 L21,21 L16.758,21 L14.121,18.363 Z M5.636,9.878 L2.807,7.05 C2.61922296,6.86243174 2.51371334,6.60790925 2.51371334,6.3425 C2.51371334,6.07709075 2.61922296,5.82256826 2.807,5.635 L5.636,2.807 C6.02649985,2.41661806 6.65950015,2.41661806 7.05,2.807 L9.88,5.635 L5.636,9.878 Z" id="形状" fill="#FFFFFF" fill-rule="nonzero"></path>
            </g>
        </g>
        <g id="icon_锁定备份" transform="translate(38.000000, 40.000000)">
            <g id="矩形" fill-rule="nonzero">
                <use fill="black" fill-opacity="1" filter="url(#filter-2)" xlink:href="#path-1"></use>
                <use fill="#FFFFFF" xlink:href="#path-1"></use>
            </g>
            <rect id="矩形备份-2" fill="#F5BE15" x="0" y="0" width="16" height="16" rx="8"></rect>
            <path d="M4.34285714,4 L12.1388373,4 C12.2114976,3.99987892 12.2787204,4.03847416 12.3152483,4.1012854 C12.3517763,4.16409665 12.3520769,4.24161054 12.3160372,4.30470319 L10.860554,6.85149323 L12.3160372,9.39828327 C12.3520769,9.46137593 12.3517763,9.53888982 12.3152483,9.60170106 C12.2787204,9.6645123 12.2114976,9.70310755 12.1388373,9.7029856 L5.15756925,9.7029856 L5.15756925,13.1364152 L4.34285714,13.1364152 L4.34285714,4 Z" id="路径" fill="#FFFFFF"></path>
        </g>
    </g>
</svg>