<?xml version="1.0" encoding="UTF-8"?>
<svg width="58px" height="58px" viewBox="0 0 58 58" version="1.1" xmlns="http://www.w3.org/2000/svg" xmlns:xlink="http://www.w3.org/1999/xlink">
    <title>icon/图谱/拓扑/事件/默认</title>
    <g id="icon/图谱/拓扑/事件/默认" stroke="none" stroke-width="1" fill="none" fill-rule="evenodd">
        <g id="编组" transform="translate(5.000000, 5.000000)">
            <circle id="椭圆形" fill="#552CF6" cx="24" cy="24" r="24"></circle>
            <g id="clipboard-fill" transform="translate(12.000000, 12.000000)">
                <polygon id="路径" points="0 0 24 0 24 24 0 24"></polygon>
                <path d="M6,4 L6,8 L18,8 L18,4 L20.007,4 C20.555,4 21,4.445 21,4.993 L21,21.007 C20.9994488,21.5551903 20.5551903,21.9994488 20.007,22 L3.993,22 C3.44480973,21.9994488 3.00055122,21.5551903 3,21.007 L3,4.993 C3,4.445 3.445,4 3.993,4 L6,4 Z M8,2 L16,2 L16,6 L8,6 L8,2 Z" id="形状" fill="#FFFFFF" fill-rule="nonzero"></path>
            </g>
        </g>
    </g>
</svg>