<?xml version="1.0" encoding="UTF-8"?>
<svg width="58px" height="58px" viewBox="0 0 58 58" version="1.1" xmlns="http://www.w3.org/2000/svg" xmlns:xlink="http://www.w3.org/1999/xlink">
    <title>icon/图谱/拓扑/人/锁定</title>
    <defs>
        <rect id="path-1" x="0" y="0" width="16" height="16" rx="8"></rect>
        <filter x="-21.9%" y="-15.6%" width="143.8%" height="143.8%" filterUnits="objectBoundingBox" id="filter-2">
            <feOffset dx="0" dy="1" in="SourceAlpha" result="shadowOffsetOuter1"></feOffset>
            <feGaussianBlur stdDeviation="1" in="shadowOffsetOuter1" result="shadowBlurOuter1"></feGaussianBlur>
            <feColorMatrix values="0 0 0 0 0.457836206   0 0 0 0 0   0 0 0 0 0  0 0 0 0.266731316 0" type="matrix" in="shadowBlurOuter1"></feColorMatrix>
        </filter>
    </defs>
    <g id="icon/图谱/拓扑/人/锁定" stroke="none" stroke-width="1" fill="none" fill-rule="evenodd">
        <g id="编组" transform="translate(5.000000, 5.000000)">
            <circle id="椭圆形备份" stroke="#3371FF" fill-opacity="0.7" fill="#3371FF" cx="24" cy="24" r="23.5"></circle>
            <g id="yonghu" transform="translate(15.000000, 13.000000)" fill="#FFFFFF" fill-rule="nonzero">
                <path d="M8.89500235,0 C9.32019549,0 9.74172315,0.0477681032 10.1595854,0.14330431 C10.5774476,0.238840516 10.9696516,0.367446943 11.3361974,0.52912359 C11.7027432,0.690800237 12.0289689,0.874523698 12.3148747,1.08029397 C12.6007804,1.28606425 12.8243733,1.49183452 12.9856535,1.6976048 C13.3668611,2.16793686 13.6454359,2.68603702 13.8213779,3.25190528 C13.9973199,3.81777354 14.1219454,4.35792051 14.1952546,4.87234621 C14.2685637,5.46026129 14.3052183,6.05552531 14.3052183,6.65813826 C14.4078512,6.73162764 14.4884912,6.82716384 14.5471386,6.94474686 C14.6057859,7.047632 14.6534368,7.1799129 14.6900914,7.34158954 C14.726746,7.50326619 14.7304115,7.70168753 14.7010878,7.93685355 C14.6717641,8.24550897 14.6094513,8.49169841 14.5141494,8.67542187 C14.4188475,8.85914533 14.3125492,9.00244963 14.1952546,9.10533478 C14.0632981,9.2229178 13.9240107,9.30375612 13.7773924,9.34784975 C13.7040832,9.59771365 13.6307741,9.83287968 13.5574649,10.0533478 C13.4841557,10.2444202 13.3998502,10.4318182 13.3045483,10.6155416 C13.2092464,10.7992651 13.1029481,10.9425694 12.9856535,11.0454545 C12.7070786,11.2659227 12.4798202,11.4533206 12.3038783,11.6076483 C12.1279363,11.761976 12.0106416,12.0228634 11.9519943,12.3903103 C11.9080088,12.6107784 11.893347,12.8349211 11.9080088,13.0627382 C11.9226706,13.2905553 11.9849834,13.5183724 12.0949472,13.7461894 C12.2049109,13.9740065 12.373522,14.1908002 12.6007804,14.3965705 C12.8280388,14.6023408 13.1469336,14.7860643 13.5574649,14.9477409 C13.9240107,15.0947197 14.3235456,15.2270006 14.7560697,15.3445836 C15.1885937,15.4621666 15.6101214,15.598122 16.0206527,15.7524497 C16.431184,15.9067774 16.7940643,16.0978498 17.1092937,16.3256669 C17.4245231,16.553484 17.648116,16.8658138 17.7800725,17.2626565 C17.8533817,17.4978226 17.9083635,17.7881056 17.9450181,18.1335057 C17.9816727,18.4789058 18,18.8279804 18,19.1807295 C18,19.5334785 17.9743418,19.8641807 17.9230254,20.1728362 C17.871709,20.4814916 17.7947344,20.7166576 17.6921015,20.8783343 C17.6187924,20.9812194 17.4098613,21.0841045 17.0653082,21.1869897 C16.7207551,21.2898748 16.295562,21.3890855 15.7897288,21.4846217 C15.2838956,21.5801579 14.7194151,21.6646707 14.0962872,21.7381601 C13.4731594,21.8116494 12.846366,21.8741154 12.2159073,21.925558 C11.5854485,21.9770006 10.980648,22.0174197 10.4015056,22.0468155 C9.82236321,22.0762112 9.32019547,22.0909091 8.89500235,22.0909091 C8.46980923,22.0909091 7.97497241,22.0762112 7.41049187,22.0468155 C6.84601133,22.0174197 6.26320351,21.9770005 5.66206841,21.925558 C5.06093331,21.8741154 4.46346366,21.8153239 3.86965946,21.7491835 C3.27585526,21.683043 2.73703294,21.6132281 2.2531925,21.5397387 C1.76935205,21.4662493 1.35882076,21.39276 1.02159861,21.3192706 C0.684376462,21.2457811 0.471779896,21.1722918 0.383808912,21.0988024 C0.237190591,20.9812194 0.123561396,20.6211214 0.0429213269,20.0185084 C-0.0377187418,19.4158955 -0.0047296228,18.636908 0.141888684,17.681546 C0.215197837,17.1377246 0.431459861,16.7225095 0.790674756,16.4359009 C1.14988965,16.1492923 1.56775186,15.9214752 2.04426139,15.7524497 C2.52077091,15.5834241 3.01560774,15.4327708 3.52877187,15.3004899 C4.041936,15.168209 4.49645279,14.9771366 4.89232223,14.7272727 C5.20022071,14.5362003 5.43481002,14.3524769 5.59609017,14.1761024 C5.75737032,13.9997278 5.87466497,13.8233533 5.94797413,13.6469788 C6.02128328,13.4706043 6.05793786,13.2868808 6.05793786,13.0958084 C6.05793786,12.904736 6.05060694,12.6916168 6.03594511,12.4564507 C6.00662145,12.1183996 5.8893268,11.8501633 5.68406115,11.651742 C5.47879551,11.4533206 5.25153711,11.2512248 5.00228596,11.0454546 C4.8849913,10.9425694 4.78235848,10.7992651 4.6943875,10.6155417 C4.60641651,10.4318182 4.52577644,10.2444203 4.45246727,10.0533479 C4.37915812,9.83287972 4.30584896,9.59771369 4.23253979,9.34784977 C4.12990696,9.31845402 4.02727414,9.26701145 3.92464132,9.19352205 C3.83667032,9.12003268 3.74136842,9.01714754 3.6387356,8.88486664 C3.53610279,8.75258575 3.4481318,8.56151335 3.37482263,8.31164945 C3.28685163,8.06178555 3.25386251,7.83396845 3.27585527,7.62819816 C3.29784803,7.42242787 3.33816807,7.24605335 3.39681537,7.09907459 C3.4554627,6.93739795 3.5507646,6.78307024 3.68272109,6.63609147 C3.66805926,6.07757215 3.69738292,5.51905282 3.77069208,4.96053348 C3.8293394,4.49020142 3.93563768,3.98312466 4.08958692,3.43930322 C4.24353615,2.89548177 4.47446001,2.41045183 4.78235848,1.98421339 C5.06093329,1.57267284 5.37249722,1.23829614 5.71705027,0.98108329 C6.06160332,0.723870436 6.41348729,0.521774631 6.77270217,0.374795874 C7.13191705,0.227817117 7.49113193,0.128606448 7.85034681,0.0771638691 C8.20956169,0.0257212897 8.5577802,0 8.89500233,0 L8.89500235,0 Z" id="路径"></path>
            </g>
        </g>
        <g id="icon_锁定" transform="translate(38.000000, 40.000000)">
            <g id="矩形" fill-rule="nonzero">
                <use fill="black" fill-opacity="1" filter="url(#filter-2)" xlink:href="#path-1"></use>
                <use fill="#FFFFFF" xlink:href="#path-1"></use>
            </g>
            <rect id="矩形备份" fill="#FF2626" x="0" y="0" width="16" height="16" rx="8"></rect>
            <path d="M11.3709824,5.65592597 C11.1842135,5.2206489 10.9197142,4.83124413 10.5861211,4.49994425 C10.2525281,4.16558623 9.86171682,3.90156571 9.42448322,3.71603778 C8.97213537,3.52541293 8.49387738,3.42857143 8.00158474,3.42857143 C7.50929209,3.42857143 7.02995451,3.52541293 6.57760666,3.71705717 C6.14037306,3.90156571 5.75064138,4.16558623 5.41596875,4.49994425 C5.07913694,4.83532166 4.8146376,5.22472644 4.63110744,5.65592597 C4.44002017,6.10241626 4.34285714,6.57744931 4.34285714,7.06879251 L4.34285714,11.8619371 C4.34285714,12.2533807 4.66349512,12.5714286 5.05862474,12.5714286 L10.941306,12.5714286 C11.3364356,12.5714286 11.6571088,12.2533807 11.6549144,11.8619371 L11.6549144,7.6314926 L11.6571088,7.43679021 L11.6571088,7.06879251 C11.6592327,6.57948808 11.5620697,6.10445503 11.3709824,5.65592597 Z M6.86477737,4.35824984 L6.86693655,4.35824984 L6.88097121,4.35315292 C7.23399686,4.20126467 7.61077347,4.12481086 8.00050515,4.12481086 C8.38807765,4.12481086 8.76593385,4.20228406 9.12111867,4.35111416 C9.46550761,4.49790548 9.77858846,4.70891802 10.0495653,4.97701607 C10.3227014,5.24919166 10.5353804,5.56418139 10.6854433,5.91484956 C10.8419838,6.27978911 10.9207938,6.66715512 10.9207938,7.06879251 L10.9207938,7.37053024 L5.08021653,7.37053024 L5.08021653,7.37053024 L5.08021653,7.06777312 C5.08021653,6.67021327 5.15902653,6.28284727 5.31556696,5.91484956 C5.46670944,5.56112323 5.68154768,5.24613351 5.95144496,4.97803546 C6.22026266,4.71095679 6.52578638,4.50198302 6.86477737,4.35824984 Z M7.66043457,9.63050507 L7.66043457,10.542854 C7.66043457,10.7212462 7.81373623,10.8659988 8.00266433,10.8659988 C8.19159242,10.8659988 8.34489408,10.7212462 8.34489408,10.542854 L8.34489408,9.6284663 C8.52626506,9.51837281 8.63530356,9.33284488 8.63530356,9.12692926 C8.63530356,8.79664877 8.35137162,8.52855072 8.00158474,8.52855072 C7.65179786,8.52855072 7.36786591,8.79664877 7.36786591,9.12692926 C7.3689455,9.32978673 7.48014318,9.52143096 7.66043457,9.63050507 Z" id="Shape" fill="#FFFFFF"></path>
        </g>
    </g>
</svg>