<?xml version="1.0" encoding="UTF-8"?>
<svg width="58px" height="58px" viewBox="0 0 58 58" version="1.1" xmlns="http://www.w3.org/2000/svg" xmlns:xlink="http://www.w3.org/1999/xlink">
    <title>icon/图谱/拓扑/功能/默认</title>
    <g id="icon/图谱/拓扑/功能/默认" stroke="none" stroke-width="1" fill="none" fill-rule="evenodd">
        <g id="编组" transform="translate(5.000000, 5.000000)">
            <circle id="椭圆形" fill="#34C724" cx="24" cy="24" r="24"></circle>
            <g id="apps-fill" transform="translate(12.000000, 12.000000)">
                <polygon id="路径" points="0 0 24 0 24 24 0 24"></polygon>
                <path d="M6.75,2.5 C9.09721019,2.5 11,4.40278981 11,6.75 L11,11 L6.75,11 C4.40278981,11 2.5,9.09721019 2.5,6.75 C2.5,4.40278981 4.40278981,2.5 6.75,2.5 L6.75,2.5 Z M6.75,13 L11,13 L11,17.25 C11,19.5972102 9.09721019,21.5 6.75,21.5 C4.40278981,21.5 2.5,19.5972102 2.5,17.25 C2.5,14.9027898 4.40278981,13 6.75,13 Z M17.25,2.5 C19.5972102,2.5 21.5,4.40278981 21.5,6.75 C21.5,9.09721019 19.5972102,11 17.25,11 L13,11 L13,6.75 C13,4.40278981 14.9027898,2.5 17.25,2.5 Z M13,13 L17.25,13 C19.5972102,13 21.5,14.9027898 21.5,17.25 C21.5,19.5972102 19.5972102,21.5 17.25,21.5 C14.9027898,21.5 13,19.5972102 13,17.25 L13,13 Z" id="形状" fill="#FFFFFF" fill-rule="nonzero"></path>
            </g>
        </g>
    </g>
</svg>