<?xml version="1.0" encoding="UTF-8"?>
<svg width="58px" height="58px" viewBox="0 0 58 58" version="1.1" xmlns="http://www.w3.org/2000/svg" xmlns:xlink="http://www.w3.org/1999/xlink">
    <title>icon/图谱/拓扑/功能/标记</title>
    <defs>
        <rect id="path-1" x="0" y="0" width="16" height="16" rx="8"></rect>
        <filter x="-21.9%" y="-15.6%" width="143.8%" height="143.8%" filterUnits="objectBoundingBox" id="filter-2">
            <feOffset dx="0" dy="1" in="SourceAlpha" result="shadowOffsetOuter1"></feOffset>
            <feGaussianBlur stdDeviation="1" in="shadowOffsetOuter1" result="shadowBlurOuter1"></feGaussianBlur>
            <feColorMatrix values="0 0 0 0 0.50318002   0 0 0 0 0.377964716   0 0 0 0 0  0 0 0 0.24 0" type="matrix" in="shadowBlurOuter1"></feColorMatrix>
        </filter>
    </defs>
    <g id="icon/图谱/拓扑/功能/标记" stroke="none" stroke-width="1" fill="none" fill-rule="evenodd">
        <g id="编组" transform="translate(5.000000, 5.000000)">
            <circle id="椭圆形" stroke="#34C724" fill-opacity="0.7" fill="#34C724" cx="24" cy="24" r="23.5"></circle>
            <g id="apps-fill" transform="translate(12.000000, 12.000000)">
                <polygon id="路径" points="0 0 24 0 24 24 0 24"></polygon>
                <path d="M6.75,2.5 C9.09721019,2.5 11,4.40278981 11,6.75 L11,11 L6.75,11 C4.40278981,11 2.5,9.09721019 2.5,6.75 C2.5,4.40278981 4.40278981,2.5 6.75,2.5 L6.75,2.5 Z M6.75,13 L11,13 L11,17.25 C11,19.5972102 9.09721019,21.5 6.75,21.5 C4.40278981,21.5 2.5,19.5972102 2.5,17.25 C2.5,14.9027898 4.40278981,13 6.75,13 Z M17.25,2.5 C19.5972102,2.5 21.5,4.40278981 21.5,6.75 C21.5,9.09721019 19.5972102,11 17.25,11 L13,11 L13,6.75 C13,4.40278981 14.9027898,2.5 17.25,2.5 Z M13,13 L17.25,13 C19.5972102,13 21.5,14.9027898 21.5,17.25 C21.5,19.5972102 19.5972102,21.5 17.25,21.5 C14.9027898,21.5 13,19.5972102 13,17.25 L13,13 Z" id="形状" fill="#FFFFFF" fill-rule="nonzero"></path>
            </g>
        </g>
        <g id="icon_锁定备份" transform="translate(38.000000, 40.000000)">
            <g id="矩形" fill-rule="nonzero">
                <use fill="black" fill-opacity="1" filter="url(#filter-2)" xlink:href="#path-1"></use>
                <use fill="#FFFFFF" xlink:href="#path-1"></use>
            </g>
            <rect id="矩形备份-2" fill="#F5BE15" x="0" y="0" width="16" height="16" rx="8"></rect>
            <path d="M4.34285714,4 L12.1388373,4 C12.2114976,3.99987892 12.2787204,4.03847416 12.3152483,4.1012854 C12.3517763,4.16409665 12.3520769,4.24161054 12.3160372,4.30470319 L10.860554,6.85149323 L12.3160372,9.39828327 C12.3520769,9.46137593 12.3517763,9.53888982 12.3152483,9.60170106 C12.2787204,9.6645123 12.2114976,9.70310755 12.1388373,9.7029856 L5.15756925,9.7029856 L5.15756925,13.1364152 L4.34285714,13.1364152 L4.34285714,4 Z" id="路径" fill="#FFFFFF"></path>
        </g>
    </g>
</svg>