<?xml version="1.0" encoding="UTF-8"?>
<svg width="58px" height="58px" viewBox="0 0 58 58" version="1.1" xmlns="http://www.w3.org/2000/svg" xmlns:xlink="http://www.w3.org/1999/xlink">
    <title>icon/图谱/拓扑/组织机构/标记</title>
    <defs>
        <rect id="path-1" x="0" y="0" width="16" height="16" rx="8"></rect>
        <filter x="-21.9%" y="-15.6%" width="143.8%" height="143.8%" filterUnits="objectBoundingBox" id="filter-2">
            <feOffset dx="0" dy="1" in="SourceAlpha" result="shadowOffsetOuter1"></feOffset>
            <feGaussianBlur stdDeviation="1" in="shadowOffsetOuter1" result="shadowBlurOuter1"></feGaussianBlur>
            <feColorMatrix values="0 0 0 0 0.50318002   0 0 0 0 0.377964716   0 0 0 0 0  0 0 0 0.24 0" type="matrix" in="shadowBlurOuter1"></feColorMatrix>
        </filter>
    </defs>
    <g id="icon/图谱/拓扑/组织机构/标记" stroke="none" stroke-width="1" fill="none" fill-rule="evenodd">
        <g id="编组" transform="translate(5.000000, 5.000000)">
            <circle id="椭圆形" stroke="#D0D215" fill-opacity="0.7" fill="#D0D215" cx="24" cy="24" r="23.5"></circle>
            <g id="organization-chart" transform="translate(12.000000, 12.000000)">
                <polygon id="路径" points="0 0 24 0 24 24 0 24"></polygon>
                <path d="M15.3333333,2 C15.9466667,2 16.4444444,2.49777778 16.4444444,3.11111111 L16.4444444,7.55555556 C16.4444444,8.16888889 15.9466667,8.66666667 15.3333333,8.66666667 L13.1111111,8.66666667 L13.1111111,10.8888889 L17.5555556,10.8888889 C18.1688889,10.8888889 18.6666667,11.3866667 18.6666667,12 L18.6666667,15.3333333 L20.8888889,15.3333333 C21.5022222,15.3333333 22,15.8311111 22,16.4444444 L22,20.8888889 C22,21.5022222 21.5022222,22 20.8888889,22 L14.2222222,22 C13.6088889,22 13.1111111,21.5022222 13.1111111,20.8888889 L13.1111111,16.4444444 C13.1111111,15.8311111 13.6088889,15.3333333 14.2222222,15.3333333 L16.4444444,15.3333333 L16.4444444,13.1111111 L7.55555556,13.1111111 L7.55555556,15.3333333 L9.77777778,15.3333333 C10.3911111,15.3333333 10.8888889,15.8311111 10.8888889,16.4444444 L10.8888889,20.8888889 C10.8888889,21.5022222 10.3911111,22 9.77777778,22 L3.11111111,22 C2.49777778,22 2,21.5022222 2,20.8888889 L2,16.4444444 C2,15.8311111 2.49777778,15.3333333 3.11111111,15.3333333 L5.33333333,15.3333333 L5.33333333,12 C5.33333333,11.3866667 5.83111111,10.8888889 6.44444444,10.8888889 L10.8888889,10.8888889 L10.8888889,8.66666667 L8.66666667,8.66666667 C8.05333333,8.66666667 7.55555556,8.16888889 7.55555556,7.55555556 L7.55555556,3.11111111 C7.55555556,2.49777778 8.05333333,2 8.66666667,2 L15.3333333,2 Z" id="形状" fill="#FFFFFF" fill-rule="nonzero"></path>
            </g>
        </g>
        <g id="icon_锁定备份" transform="translate(38.000000, 40.000000)">
            <g id="矩形" fill-rule="nonzero">
                <use fill="black" fill-opacity="1" filter="url(#filter-2)" xlink:href="#path-1"></use>
                <use fill="#FFFFFF" xlink:href="#path-1"></use>
            </g>
            <rect id="矩形备份-2" fill="#F5BE15" x="0" y="0" width="16" height="16" rx="8"></rect>
            <path d="M4.34285714,4 L12.1388373,4 C12.2114976,3.99987892 12.2787204,4.03847416 12.3152483,4.1012854 C12.3517763,4.16409665 12.3520769,4.24161054 12.3160372,4.30470319 L10.860554,6.85149323 L12.3160372,9.39828327 C12.3520769,9.46137593 12.3517763,9.53888982 12.3152483,9.60170106 C12.2787204,9.6645123 12.2114976,9.70310755 12.1388373,9.7029856 L5.15756925,9.7029856 L5.15756925,13.1364152 L4.34285714,13.1364152 L4.34285714,4 Z" id="路径" fill="#FFFFFF"></path>
        </g>
    </g>
</svg>