<?xml version="1.0" encoding="UTF-8"?>
<svg width="58px" height="58px" viewBox="0 0 58 58" version="1.1" xmlns="http://www.w3.org/2000/svg" xmlns:xlink="http://www.w3.org/1999/xlink">
    <title>icon/图谱/拓扑/其他/标记</title>
    <defs>
        <rect id="path-1" x="0" y="0" width="16" height="16" rx="8"></rect>
        <filter x="-21.9%" y="-15.6%" width="143.8%" height="143.8%" filterUnits="objectBoundingBox" id="filter-2">
            <feOffset dx="0" dy="1" in="SourceAlpha" result="shadowOffsetOuter1"></feOffset>
            <feGaussianBlur stdDeviation="1" in="shadowOffsetOuter1" result="shadowBlurOuter1"></feGaussianBlur>
            <feColorMatrix values="0 0 0 0 0.50318002   0 0 0 0 0.377964716   0 0 0 0 0  0 0 0 0.24 0" type="matrix" in="shadowBlurOuter1"></feColorMatrix>
        </filter>
    </defs>
    <g id="icon/图谱/拓扑/其他/标记" stroke="none" stroke-width="1" fill="none" fill-rule="evenodd">
        <g id="编组" transform="translate(5.000000, 5.000000)">
            <circle id="椭圆形" stroke="#8197FF" fill-opacity="0.8" fill="#8197FF" cx="24" cy="24" r="23.5"></circle>
            <g id="瀑布流纵向_waterfalls-v" transform="translate(15.000000, 15.000000)" fill="#FFFFFF" fill-rule="nonzero" stroke="#FFFFFF" stroke-linejoin="round" stroke-width="1.77777778">
                <path d="M8.5,6.5 L8.5,0.5 C8.5,0.223857625 8.27614237,-5.07265313e-17 8,0 L0.5,0 C0.223857625,5.07265313e-17 -3.38176876e-17,0.223857625 0,0.5 L0,6.5 C3.38176876e-17,6.77614237 0.223857625,7 0.5,7 L8,7 C8.27614237,7 8.5,6.77614237 8.5,6.5 Z" id="路径"></path>
                <path d="M18,17.5 L18,11.5 C18,11.2238576 17.7761424,11 17.5,11 L10,11 C9.72385763,11 9.5,11.2238576 9.5,11.5 L9.5,17.5 C9.5,17.7761424 9.72385763,18 10,18 L17.5,18 C17.7761424,18 18,17.7761424 18,17.5 Z" id="路径"></path>
                <path d="M12.5,0.5 L12.5,6.5 C12.5,6.77614237 12.7238576,7 13,7 L17.5,7 C17.7761424,7 18,6.77614237 18,6.5 L18,0.5 C18,0.223857625 17.7761424,-5.07265313e-17 17.5,0 L13,0 C12.7238576,5.07265313e-17 12.5,0.223857625 12.5,0.5 Z" id="路径"></path>
                <path d="M0,11.5 L0,17.5 C3.38176876e-17,17.7761424 0.223857625,18 0.5,18 L5,18 C5.27614237,18 5.5,17.7761424 5.5,17.5 L5.5,11.5 C5.5,11.2238576 5.27614237,11 5,11 L0.5,11 C0.223857625,11 -3.38176876e-17,11.2238576 0,11.5 Z" id="路径"></path>
            </g>
        </g>
        <g id="icon_锁定备份" transform="translate(38.000000, 40.000000)">
            <g id="矩形" fill-rule="nonzero">
                <use fill="black" fill-opacity="1" filter="url(#filter-2)" xlink:href="#path-1"></use>
                <use fill="#FFFFFF" xlink:href="#path-1"></use>
            </g>
            <rect id="矩形备份-2" fill="#F5BE15" x="0" y="0" width="16" height="16" rx="8"></rect>
            <path d="M4.34285714,4 L12.1388373,4 C12.2114976,3.99987892 12.2787204,4.03847416 12.3152483,4.1012854 C12.3517763,4.16409665 12.3520769,4.24161054 12.3160372,4.30470319 L10.860554,6.85149323 L12.3160372,9.39828327 C12.3520769,9.46137593 12.3517763,9.53888982 12.3152483,9.60170106 C12.2787204,9.6645123 12.2114976,9.70310755 12.1388373,9.7029856 L5.15756925,9.7029856 L5.15756925,13.1364152 L4.34285714,13.1364152 L4.34285714,4 Z" id="路径" fill="#FFFFFF"></path>
        </g>
    </g>
</svg>