<?xml version="1.0" encoding="UTF-8"?>
<svg width="58px" height="58px" viewBox="0 0 58 58" version="1.1" xmlns="http://www.w3.org/2000/svg" xmlns:xlink="http://www.w3.org/1999/xlink">
    <title>icon/图谱/拓扑/单位/默认</title>
    <g id="icon/图谱/拓扑/单位/默认" stroke="none" stroke-width="1" fill="none" fill-rule="evenodd">
        <g id="编组" transform="translate(5.000000, 5.000000)">
            <circle id="椭圆形" fill="#FF8800" cx="24" cy="24" r="24"></circle>
            <g id="building-fill-(1)" transform="translate(12.000000, 12.000000)">
                <polygon id="路径" points="0 0 24 0 24 24 0 24"></polygon>
                <path d="M21,19 L23,19 L23,21 L1,21 L1,19 L3,19 L3,4 C3,3.44771525 3.44771525,3 4,3 L14,3 C14.5522847,3 15,3.44771525 15,4 L15,19 L17,19 L17,9 L20,9 C20.5522847,9 21,9.44771525 21,10 L21,19 Z M7,11 L7,13 L11,13 L11,11 L7,11 Z M7,7 L7,9 L11,9 L11,7 L7,7 Z" id="形状" fill="#FFFFFF" fill-rule="nonzero"></path>
            </g>
        </g>
    </g>
</svg>