<?xml version="1.0" encoding="UTF-8"?>
<svg width="58px" height="58px" viewBox="0 0 58 58" version="1.1" xmlns="http://www.w3.org/2000/svg" xmlns:xlink="http://www.w3.org/1999/xlink">
    <title>icon/图谱/拓扑/设备/锁定+标记</title>
    <defs>
        <rect id="path-1" x="0" y="0" width="16" height="16" rx="8"></rect>
        <filter x="-21.9%" y="-15.6%" width="143.8%" height="143.8%" filterUnits="objectBoundingBox" id="filter-2">
            <feOffset dx="0" dy="1" in="SourceAlpha" result="shadowOffsetOuter1"></feOffset>
            <feGaussianBlur stdDeviation="1" in="shadowOffsetOuter1" result="shadowBlurOuter1"></feGaussianBlur>
            <feColorMatrix values="0 0 0 0 0.457836206   0 0 0 0 0   0 0 0 0 0  0 0 0 0.266731316 0" type="matrix" in="shadowBlurOuter1"></feColorMatrix>
        </filter>
        <rect id="path-3" x="0" y="0" width="16" height="16" rx="8"></rect>
        <filter x="-21.9%" y="-15.6%" width="143.8%" height="143.8%" filterUnits="objectBoundingBox" id="filter-4">
            <feOffset dx="0" dy="1" in="SourceAlpha" result="shadowOffsetOuter1"></feOffset>
            <feGaussianBlur stdDeviation="1" in="shadowOffsetOuter1" result="shadowBlurOuter1"></feGaussianBlur>
            <feColorMatrix values="0 0 0 0 0.50318002   0 0 0 0 0.377964716   0 0 0 0 0  0 0 0 0.24 0" type="matrix" in="shadowBlurOuter1"></feColorMatrix>
        </filter>
    </defs>
    <g id="icon/图谱/拓扑/设备/锁定+标记" stroke="none" stroke-width="1" fill="none" fill-rule="evenodd">
        <g id="编组" transform="translate(5.000000, 5.000000)">
            <circle id="椭圆形" stroke="#21C2CC" fill-opacity="0.7" fill="#21C2CC" cx="24" cy="24" r="23.5"></circle>
            <g id="computer-fill-(1)" transform="translate(12.000000, 12.000000)">
                <polygon id="路径" points="0 0 24 0 24 24 0 24"></polygon>
                <path d="M13,18 L13,20 L17,20 L17,22 L7,22 L7,20 L11,20 L11,18 L2.992,18 C2.72678869,17.9984163 2.47311496,17.8913333 2.28699136,17.7023953 C2.10086777,17.5134573 1.99760354,17.2582052 1.9999592,16.993 L1.9999592,4.007 C1.9999592,3.451 2.455,3 2.992,3 L21.008,3 C21.556,3 22,3.449 22,4.007 L22,16.993 C22,17.549 21.545,18 21.008,18 L13,18 L13,18 Z" id="路径" fill="#FFFFFF" fill-rule="nonzero"></path>
            </g>
        </g>
        <g id="编组" transform="translate(20.000000, 40.000000)">
            <g id="icon_锁定">
                <g id="矩形" fill-rule="nonzero">
                    <use fill="black" fill-opacity="1" filter="url(#filter-2)" xlink:href="#path-1"></use>
                    <use fill="#FFFFFF" xlink:href="#path-1"></use>
                </g>
                <rect id="矩形备份" fill="#FF2626" x="0" y="0" width="16" height="16" rx="8"></rect>
                <path d="M11.3709824,5.65592597 C11.1842135,5.2206489 10.9197142,4.83124413 10.5861211,4.49994425 C10.2525281,4.16558623 9.86171682,3.90156571 9.42448322,3.71603778 C8.97213537,3.52541293 8.49387738,3.42857143 8.00158474,3.42857143 C7.50929209,3.42857143 7.02995451,3.52541293 6.57760666,3.71705717 C6.14037306,3.90156571 5.75064138,4.16558623 5.41596875,4.49994425 C5.07913694,4.83532166 4.8146376,5.22472644 4.63110744,5.65592597 C4.44002017,6.10241626 4.34285714,6.57744931 4.34285714,7.06879251 L4.34285714,11.8619371 C4.34285714,12.2533807 4.66349512,12.5714286 5.05862474,12.5714286 L10.941306,12.5714286 C11.3364356,12.5714286 11.6571088,12.2533807 11.6549144,11.8619371 L11.6549144,7.6314926 L11.6571088,7.43679021 L11.6571088,7.06879251 C11.6592327,6.57948808 11.5620697,6.10445503 11.3709824,5.65592597 Z M6.86477737,4.35824984 L6.86693655,4.35824984 L6.88097121,4.35315292 C7.23399686,4.20126467 7.61077347,4.12481086 8.00050515,4.12481086 C8.38807765,4.12481086 8.76593385,4.20228406 9.12111867,4.35111416 C9.46550761,4.49790548 9.77858846,4.70891802 10.0495653,4.97701607 C10.3227014,5.24919166 10.5353804,5.56418139 10.6854433,5.91484956 C10.8419838,6.27978911 10.9207938,6.66715512 10.9207938,7.06879251 L10.9207938,7.37053024 L5.08021653,7.37053024 L5.08021653,7.37053024 L5.08021653,7.06777312 C5.08021653,6.67021327 5.15902653,6.28284727 5.31556696,5.91484956 C5.46670944,5.56112323 5.68154768,5.24613351 5.95144496,4.97803546 C6.22026266,4.71095679 6.52578638,4.50198302 6.86477737,4.35824984 Z M7.66043457,9.63050507 L7.66043457,10.542854 C7.66043457,10.7212462 7.81373623,10.8659988 8.00266433,10.8659988 C8.19159242,10.8659988 8.34489408,10.7212462 8.34489408,10.542854 L8.34489408,9.6284663 C8.52626506,9.51837281 8.63530356,9.33284488 8.63530356,9.12692926 C8.63530356,8.79664877 8.35137162,8.52855072 8.00158474,8.52855072 C7.65179786,8.52855072 7.36786591,8.79664877 7.36786591,9.12692926 C7.3689455,9.32978673 7.48014318,9.52143096 7.66043457,9.63050507 Z" id="Shape" fill="#FFFFFF"></path>
            </g>
            <g id="icon_锁定备份" transform="translate(18.000000, 0.000000)">
                <g id="矩形" fill-rule="nonzero">
                    <use fill="black" fill-opacity="1" filter="url(#filter-4)" xlink:href="#path-3"></use>
                    <use fill="#FFFFFF" xlink:href="#path-3"></use>
                </g>
                <rect id="矩形备份-2" fill="#F5BE15" x="0" y="0" width="16" height="16" rx="8"></rect>
                <path d="M4.34285714,4 L12.1388373,4 C12.2114976,3.99987892 12.2787204,4.03847416 12.3152483,4.1012854 C12.3517763,4.16409665 12.3520769,4.24161054 12.3160372,4.30470319 L10.860554,6.85149323 L12.3160372,9.39828327 C12.3520769,9.46137593 12.3517763,9.53888982 12.3152483,9.60170106 C12.2787204,9.6645123 12.2114976,9.70310755 12.1388373,9.7029856 L5.15756925,9.7029856 L5.15756925,13.1364152 L4.34285714,13.1364152 L4.34285714,4 Z" id="路径" fill="#FFFFFF"></path>
            </g>
        </g>
    </g>
</svg>