<?xml version="1.0" encoding="UTF-8"?>
<svg width="58px" height="58px" viewBox="0 0 58 58" version="1.1" xmlns="http://www.w3.org/2000/svg" xmlns:xlink="http://www.w3.org/1999/xlink">
    <title>icon/图谱/拓扑/版本/sign</title>
    <defs>
        <rect id="path-1" x="0" y="0" width="16" height="16" rx="8"></rect>
        <filter x="-21.9%" y="-15.6%" width="143.8%" height="143.8%" filterUnits="objectBoundingBox" id="filter-2">
            <feOffset dx="0" dy="1" in="SourceAlpha" result="shadowOffsetOuter1"></feOffset>
            <feGaussianBlur stdDeviation="1" in="shadowOffsetOuter1" result="shadowBlurOuter1"></feGaussianBlur>
            <feColorMatrix values="0 0 0 0 0.50318002   0 0 0 0 0.377964716   0 0 0 0 0  0 0 0 0.24 0" type="matrix" in="shadowBlurOuter1"></feColorMatrix>
        </filter>
    </defs>
    <g id="icon/图谱/拓扑/版本/sign" stroke="none" stroke-width="1" fill="none" fill-rule="evenodd">
        <g id="编组" transform="translate(5.000000, 5.000000)">
            <circle id="椭圆形" stroke="#81C6E8" fill-opacity="0.802350238" fill="#81C6E8" cx="24" cy="24" r="23.5"></circle>
            <rect id="矩形" x="12" y="12" width="24" height="24"></rect>
            <path d="M23.8502685,13 L23.8502685,20.2774835 L23.8505939,20.3165279 C23.8714425,21.6026143 24.9207099,22.6387418 26.2120273,22.6387418 L33.7212742,22.6387418 L33.7212742,31.8324505 C33.7212742,33.5818385 32.3028123,35 30.5530489,35 L18.1682253,35 C16.4184619,35 15,33.5818385 15,31.8324505 L15,16.1675495 C15,14.4181615 16.4184619,13 18.1682253,13 L23.8502685,13 Z M25.816091,13.222603 L25.8304573,13.2359932 L33.3176405,20.406992 C33.3485503,20.4365744 33.3768848,20.4687354 33.4023367,20.5031263 C33.4643448,20.5679909 33.5185881,20.6398561 33.5639704,20.7172696 L27.2120273,20.7172696 L27.1882253,20.7170944 C26.4038339,20.70438 25.7719408,20.0647031 25.7719408,19.2774835 L25.7719408,13.1854107 C25.787008,13.197149 25.8017247,13.2095381 25.816091,13.222603 Z" id="形状" fill="#FFFFFF" fill-rule="nonzero"></path>
        </g>
        <g id="icon_锁定备份" transform="translate(38.000000, 40.000000)">
            <g id="矩形" fill-rule="nonzero">
                <use fill="black" fill-opacity="1" filter="url(#filter-2)" xlink:href="#path-1"></use>
                <use fill="#FFFFFF" xlink:href="#path-1"></use>
            </g>
            <rect id="矩形备份-2" fill="#F5BE15" x="0" y="0" width="16" height="16" rx="8"></rect>
            <path d="M4.34285714,4 L12.1388373,4 C12.2114976,3.99987892 12.2787204,4.03847416 12.3152483,4.1012854 C12.3517763,4.16409665 12.3520769,4.24161054 12.3160372,4.30470319 L10.860554,6.85149323 L12.3160372,9.39828327 C12.3520769,9.46137593 12.3517763,9.53888982 12.3152483,9.60170106 C12.2787204,9.6645123 12.2114976,9.70310755 12.1388373,9.7029856 L5.15756925,9.7029856 L5.15756925,13.1364152 L4.34285714,13.1364152 L4.34285714,4 Z" id="路径" fill="#FFFFFF"></path>
        </g>
    </g>
</svg>