<?xml version="1.0" encoding="UTF-8"?>
<svg width="58px" height="58px" viewBox="0 0 58 58" version="1.1" xmlns="http://www.w3.org/2000/svg" xmlns:xlink="http://www.w3.org/1999/xlink">
    <title>icon/图谱/拓扑/产品/默认</title>
    <g id="icon/图谱/拓扑/产品/默认" stroke="none" stroke-width="1" fill="none" fill-rule="evenodd">
        <g id="编组" transform="translate(5.000000, 5.000000)">
            <circle id="椭圆形" fill="#F158FF" cx="24" cy="24" r="24"></circle>
            <g id="stack-fill-(2)" transform="translate(12.000000, 12.000000)">
                <polygon id="路径" points="0 0 24 0 24 24 0 24"></polygon>
                <path d="M20.083,10.5 L21.285,11.221 C21.4358426,11.3113033 21.5281752,11.4741928 21.5281752,11.65 C21.5281752,11.8258072 21.4358426,11.9886967 21.285,12.079 L12,17.65 L2.715,12.079 C2.56415738,11.9886967 2.47182484,11.8258072 2.47182484,11.65 C2.47182484,11.4741928 2.56415738,11.3113033 2.715,11.221 L3.917,10.5 L12,15.35 L20.083,10.5 Z M20.083,15.2 L21.285,15.921 C21.4358426,16.0113033 21.5281752,16.1741928 21.5281752,16.35 C21.5281752,16.5258072 21.4358426,16.6886967 21.285,16.779 L12.515,22.041 C12.1980675,22.2314131 11.8019325,22.2314131 11.485,22.041 L2.715,16.779 C2.56415738,16.6886967 2.47182484,16.5258072 2.47182484,16.35 C2.47182484,16.1741928 2.56415738,16.0113033 2.715,15.921 L3.917,15.2 L12,20.05 L20.083,15.2 L20.083,15.2 Z M12.514,1.309 L21.285,6.571 C21.4358426,6.66130334 21.5281752,6.82419275 21.5281752,7 C21.5281752,7.17580725 21.4358426,7.33869666 21.285,7.429 L12,13 L2.715,7.429 C2.56415738,7.33869666 2.47182484,7.17580725 2.47182484,7 C2.47182484,6.82419275 2.56415738,6.66130334 2.715,6.571 L11.485,1.309 C11.8019325,1.1185869 12.1980675,1.1185869 12.515,1.309 L12.514,1.309 Z" id="形状" fill="#FFFFFF" fill-rule="nonzero"></path>
            </g>
        </g>
    </g>
</svg>