<?xml version="1.0" encoding="UTF-8"?>
<svg width="58px" height="58px" viewBox="0 0 58 58" version="1.1" xmlns="http://www.w3.org/2000/svg" xmlns:xlink="http://www.w3.org/1999/xlink">
    <title>icon/图谱/拓扑/产品/标记</title>
    <defs>
        <rect id="path-1" x="0" y="0" width="16" height="16" rx="8"></rect>
        <filter x="-21.9%" y="-15.6%" width="143.8%" height="143.8%" filterUnits="objectBoundingBox" id="filter-2">
            <feOffset dx="0" dy="1" in="SourceAlpha" result="shadowOffsetOuter1"></feOffset>
            <feGaussianBlur stdDeviation="1" in="shadowOffsetOuter1" result="shadowBlurOuter1"></feGaussianBlur>
            <feColorMatrix values="0 0 0 0 0.50318002   0 0 0 0 0.377964716   0 0 0 0 0  0 0 0 0.24 0" type="matrix" in="shadowBlurOuter1"></feColorMatrix>
        </filter>
    </defs>
    <g id="icon/图谱/拓扑/产品/标记" stroke="none" stroke-width="1" fill="none" fill-rule="evenodd">
        <g id="编组" transform="translate(5.000000, 5.000000)">
            <circle id="椭圆形备份" stroke="#F158FF" fill-opacity="0.8" fill="#F158FF" cx="24" cy="24" r="23.5"></circle>
            <g id="stack-fill-(2)" transform="translate(12.000000, 12.000000)">
                <polygon id="路径" points="0 0 24 0 24 24 0 24"></polygon>
                <path d="M20.083,10.5 L21.285,11.221 C21.4358426,11.3113033 21.5281752,11.4741928 21.5281752,11.65 C21.5281752,11.8258072 21.4358426,11.9886967 21.285,12.079 L12,17.65 L2.715,12.079 C2.56415738,11.9886967 2.47182484,11.8258072 2.47182484,11.65 C2.47182484,11.4741928 2.56415738,11.3113033 2.715,11.221 L3.917,10.5 L12,15.35 L20.083,10.5 Z M20.083,15.2 L21.285,15.921 C21.4358426,16.0113033 21.5281752,16.1741928 21.5281752,16.35 C21.5281752,16.5258072 21.4358426,16.6886967 21.285,16.779 L12.515,22.041 C12.1980675,22.2314131 11.8019325,22.2314131 11.485,22.041 L2.715,16.779 C2.56415738,16.6886967 2.47182484,16.5258072 2.47182484,16.35 C2.47182484,16.1741928 2.56415738,16.0113033 2.715,15.921 L3.917,15.2 L12,20.05 L20.083,15.2 L20.083,15.2 Z M12.514,1.309 L21.285,6.571 C21.4358426,6.66130334 21.5281752,6.82419275 21.5281752,7 C21.5281752,7.17580725 21.4358426,7.33869666 21.285,7.429 L12,13 L2.715,7.429 C2.56415738,7.33869666 2.47182484,7.17580725 2.47182484,7 C2.47182484,6.82419275 2.56415738,6.66130334 2.715,6.571 L11.485,1.309 C11.8019325,1.1185869 12.1980675,1.1185869 12.515,1.309 L12.514,1.309 Z" id="形状" fill="#FFFFFF" fill-rule="nonzero"></path>
            </g>
        </g>
        <g id="icon_锁定备份" transform="translate(38.000000, 40.000000)">
            <g id="矩形" fill-rule="nonzero">
                <use fill="black" fill-opacity="1" filter="url(#filter-2)" xlink:href="#path-1"></use>
                <use fill="#FFFFFF" xlink:href="#path-1"></use>
            </g>
            <rect id="矩形备份-2" fill="#F5BE15" x="0" y="0" width="16" height="16" rx="8"></rect>
            <path d="M4.34285714,4 L12.1388373,4 C12.2114976,3.99987892 12.2787204,4.03847416 12.3152483,4.1012854 C12.3517763,4.16409665 12.3520769,4.24161054 12.3160372,4.30470319 L10.860554,6.85149323 L12.3160372,9.39828327 C12.3520769,9.46137593 12.3517763,9.53888982 12.3152483,9.60170106 C12.2787204,9.6645123 12.2114976,9.70310755 12.1388373,9.7029856 L5.15756925,9.7029856 L5.15756925,13.1364152 L4.34285714,13.1364152 L4.34285714,4 Z" id="路径" fill="#FFFFFF"></path>
        </g>
    </g>
</svg>