<?xml version="1.0" encoding="UTF-8"?>
<svg width="58px" height="58px" viewBox="0 0 58 58" version="1.1" xmlns="http://www.w3.org/2000/svg" xmlns:xlink="http://www.w3.org/1999/xlink">
    <title>icon/图谱/拓扑/属性/默认</title>
    <g id="icon/图谱/拓扑/属性/默认" stroke="none" stroke-width="1" fill="none" fill-rule="evenodd">
        <rect id="矩形" fill="#1BB380" x="12" y="12" width="34" height="34"></rect>
        <path d="M35.9230769,19 L22.0769231,19 C20.3846154,19 19,20.3846154 19,22.0769231 L19,35.9230769 C19,37.6153846 20.3846154,39 22.0769231,39 L35.9230769,39 C37.6153846,39 39,37.6153846 39,35.9230769 L39,22.0769231 C39,20.3846154 37.6153846,19 35.9230769,19 Z M24.3846154,34.3846154 C23.9538462,34.3846154 23.6153846,34.0461538 23.6153846,33.6153846 C23.6153846,33.1846154 23.9538462,32.8461538 24.3846154,32.8461538 C24.8153846,32.8461538 25.1538462,33.1846154 25.1538462,33.6153846 C25.1538462,34.0461538 24.8153846,34.3846154 24.3846154,34.3846154 Z M24.3846154,29.7692308 C23.9538462,29.7692308 23.6153846,29.4307692 23.6153846,29 C23.6153846,28.5692308 23.9538462,28.2307692 24.3846154,28.2307692 C24.8153846,28.2307692 25.1538462,28.5692308 25.1538462,29 C25.1538462,29.4307692 24.8153846,29.7692308 24.3846154,29.7692308 Z M24.3846154,25.1538462 C23.9538462,25.1538462 23.6153846,24.8153846 23.6153846,24.3846154 C23.6153846,23.9538462 23.9538462,23.6153846 24.3846154,23.6153846 C24.8153846,23.6153846 25.1538462,23.9538462 25.1538462,24.3846154 C25.1538462,24.8153846 24.8153846,25.1538462 24.3846154,25.1538462 Z M33.6153846,34.3846154 L27.4615385,34.3846154 C27.0307692,34.3846154 26.6923077,34.0461538 26.6923077,33.6153846 C26.6923077,33.1846154 27.0307692,32.8461538 27.4615385,32.8461538 L33.6153846,32.8461538 C34.0461538,32.8461538 34.3846154,33.1846154 34.3846154,33.6153846 C34.3846154,34.0461538 34.0461538,34.3846154 33.6153846,34.3846154 Z M33.6153846,29.7692308 L27.4615385,29.7692308 C27.0307692,29.7692308 26.6923077,29.4307692 26.6923077,29 C26.6923077,28.5692308 27.0307692,28.2307692 27.4615385,28.2307692 L33.6153846,28.2307692 C34.0461538,28.2307692 34.3846154,28.5692308 34.3846154,29 C34.3846154,29.4307692 34.0461538,29.7692308 33.6153846,29.7692308 Z M33.6153846,25.1538462 L27.4615385,25.1538462 C27.0307692,25.1538462 26.6923077,24.8153846 26.6923077,24.3846154 C26.6923077,23.9538462 27.0307692,23.6153846 27.4615385,23.6153846 L33.6153846,23.6153846 C34.0461538,23.6153846 34.3846154,23.9538462 34.3846154,24.3846154 C34.3846154,24.8153846 34.0461538,25.1538462 33.6153846,25.1538462 Z" id="形状" fill="#FFFFFF" fill-rule="nonzero"></path>
    </g>
</svg>