<?xml version="1.0" encoding="UTF-8"?>
<svg width="58px" height="58px" viewBox="0 0 58 58" version="1.1" xmlns="http://www.w3.org/2000/svg" xmlns:xlink="http://www.w3.org/1999/xlink">
    <title>icon/图谱/拓扑/属性/sign</title>
    <defs>
        <rect id="path-1" x="0" y="0" width="16" height="16" rx="8"></rect>
        <filter x="-21.9%" y="-15.6%" width="143.8%" height="143.8%" filterUnits="objectBoundingBox" id="filter-2">
            <feOffset dx="0" dy="1" in="SourceAlpha" result="shadowOffsetOuter1"></feOffset>
            <feGaussianBlur stdDeviation="1" in="shadowOffsetOuter1" result="shadowBlurOuter1"></feGaussianBlur>
            <feColorMatrix values="0 0 0 0 0.50318002   0 0 0 0 0.377964716   0 0 0 0 0  0 0 0 0.24 0" type="matrix" in="shadowBlurOuter1"></feColorMatrix>
        </filter>
    </defs>
    <g id="icon/图谱/拓扑/属性/sign" stroke="none" stroke-width="1" fill="none" fill-rule="evenodd">
        <rect id="矩形" stroke="#1BB380" fill-opacity="0.8" fill="#1BB380" x="12.5" y="12.5" width="33" height="33"></rect>
        <g id="icon_锁定备份" transform="translate(38.000000, 40.000000)">
            <g id="矩形" fill-rule="nonzero">
                <use fill="black" fill-opacity="1" filter="url(#filter-2)" xlink:href="#path-1"></use>
                <use fill="#FFFFFF" xlink:href="#path-1"></use>
            </g>
            <rect id="矩形备份-2" fill="#F5BE15" x="0" y="0" width="16" height="16" rx="8"></rect>
            <path d="M4.34285714,4 L12.1388373,4 C12.2114976,3.99987892 12.2787204,4.03847416 12.3152483,4.1012854 C12.3517763,4.16409665 12.3520769,4.24161054 12.3160372,4.30470319 L10.860554,6.85149323 L12.3160372,9.39828327 C12.3520769,9.46137593 12.3517763,9.53888982 12.3152483,9.60170106 C12.2787204,9.6645123 12.2114976,9.70310755 12.1388373,9.7029856 L5.15756925,9.7029856 L5.15756925,13.1364152 L4.34285714,13.1364152 L4.34285714,4 Z" id="路径" fill="#FFFFFF"></path>
        </g>
        <path d="M35.9230769,19 L22.0769231,19 C20.3846154,19 19,20.3846154 19,22.0769231 L19,35.9230769 C19,37.6153846 20.3846154,39 22.0769231,39 L35.9230769,39 C37.6153846,39 39,37.6153846 39,35.9230769 L39,22.0769231 C39,20.3846154 37.6153846,19 35.9230769,19 Z M24.3846154,34.3846154 C23.9538462,34.3846154 23.6153846,34.0461538 23.6153846,33.6153846 C23.6153846,33.1846154 23.9538462,32.8461538 24.3846154,32.8461538 C24.8153846,32.8461538 25.1538462,33.1846154 25.1538462,33.6153846 C25.1538462,34.0461538 24.8153846,34.3846154 24.3846154,34.3846154 Z M24.3846154,29.7692308 C23.9538462,29.7692308 23.6153846,29.4307692 23.6153846,29 C23.6153846,28.5692308 23.9538462,28.2307692 24.3846154,28.2307692 C24.8153846,28.2307692 25.1538462,28.5692308 25.1538462,29 C25.1538462,29.4307692 24.8153846,29.7692308 24.3846154,29.7692308 Z M24.3846154,25.1538462 C23.9538462,25.1538462 23.6153846,24.8153846 23.6153846,24.3846154 C23.6153846,23.9538462 23.9538462,23.6153846 24.3846154,23.6153846 C24.8153846,23.6153846 25.1538462,23.9538462 25.1538462,24.3846154 C25.1538462,24.8153846 24.8153846,25.1538462 24.3846154,25.1538462 Z M33.6153846,34.3846154 L27.4615385,34.3846154 C27.0307692,34.3846154 26.6923077,34.0461538 26.6923077,33.6153846 C26.6923077,33.1846154 27.0307692,32.8461538 27.4615385,32.8461538 L33.6153846,32.8461538 C34.0461538,32.8461538 34.3846154,33.1846154 34.3846154,33.6153846 C34.3846154,34.0461538 34.0461538,34.3846154 33.6153846,34.3846154 Z M33.6153846,29.7692308 L27.4615385,29.7692308 C27.0307692,29.7692308 26.6923077,29.4307692 26.6923077,29 C26.6923077,28.5692308 27.0307692,28.2307692 27.4615385,28.2307692 L33.6153846,28.2307692 C34.0461538,28.2307692 34.3846154,28.5692308 34.3846154,29 C34.3846154,29.4307692 34.0461538,29.7692308 33.6153846,29.7692308 Z M33.6153846,25.1538462 L27.4615385,25.1538462 C27.0307692,25.1538462 26.6923077,24.8153846 26.6923077,24.3846154 C26.6923077,23.9538462 27.0307692,23.6153846 27.4615385,23.6153846 L33.6153846,23.6153846 C34.0461538,23.6153846 34.3846154,23.9538462 34.3846154,24.3846154 C34.3846154,24.8153846 34.0461538,25.1538462 33.6153846,25.1538462 Z" id="形状" fill="#FFFFFF" fill-rule="nonzero"></path>
    </g>
</svg>